<svg xmlns="http://www.w3.org/2000/svg" xmlns:xlink="http://www.w3.org/1999/xlink" width="150" height="150" viewBox="0 0 150 150">
    <defs>
        <path id="a" d="M0 0h150v150H0z"/>
    </defs>
    <g fill="none" fill-rule="evenodd">
        <mask id="b" fill="#fff">
            <use xlink:href="#a"/>
        </mask>
        <use fill="#FFF" opacity=".1" xlink:href="#a"/>
        <g fill-rule="nonzero" mask="url(#b)">
            <path fill="#FEBB8E" d="M25.839 91.269v44.1h13.503l2.7-44.1z"/>
            <path fill="#FEAB75" d="M39.342 91.269h6.481v44.101h-6.481zM28.146 48.513c1.79 0 3.24 1.444 3.24 3.227l5.453 34.588H22.205l2.7-17.917V51.74a3.234 3.234 0 0 1 3.241-3.227z"/>
            <path fill="#FCD5A2" d="M43.81 54.967a3.234 3.234 0 0 1 3.24-3.227c1.79 0 3.24 1.444 3.24 3.227V73.79L35.63 84.126l8.18-29.16z"/>
            <path fill="#FEAB75" d="M36.788 50.74a3.234 3.234 0 0 1 3.24-3.227c1.79 0 3.241 1.444 3.241 3.227v34.588H31.335l5.453-34.589z"/>
            <path fill="#FCD5A2" d="M34.627 44.286c1.79 0 3.24 1.444 3.24 3.227v37.303h-6.48V47.512a3.233 3.233 0 0 1 3.24-3.226z"/>
            <path fill="#FEBB8E" d="M24.365 72.714l-5.4 10.756 16.742 21.433c8.188-.81 14.583-7.688 14.583-16.054V72.714H24.365z"/>
            <path fill="#FCD5A2" d="M34.357 104.714c.547 0 1.087-.028 1.62-.08V94.495c0-6.237-5.077-11.295-11.341-11.295V67.067a3.234 3.234 0 0 0-3.241-3.227 3.234 3.234 0 0 0-3.24 3.227v21.512c0 8.912 7.253 16.135 16.202 16.135z"/>
            <path fill="#A0613C" d="M103.367 75.135v60.235h13.503l2.7-60.235z"/>
            <path fill="#804E30" d="M116.869 75.135h6.481v60.235h-6.481zM121.584 31.378a3.234 3.234 0 0 0-3.24 3.227l-5.453 34.589h14.634l-2.7-17.917V34.605a3.233 3.233 0 0 0-3.241-3.227z"/>
            <path fill="#A0613C" d="M105.38 38.832a3.234 3.234 0 0 0-3.24-3.227 3.234 3.234 0 0 0-3.24 3.227v18.824l14.66 10.335-8.18-29.16z"/>
            <path fill="#804E30" d="M112.672 34.605a3.234 3.234 0 0 0-3.24-3.227 3.234 3.234 0 0 0-3.241 3.227v34.589h11.933l-5.452-34.589z"/>
            <path fill="#A0613C" d="M115.103 28.151a3.234 3.234 0 0 0-3.241 3.227v37.304h6.481V31.378a3.233 3.233 0 0 0-3.24-3.227z"/>
            <path fill="#BF7447" d="M124.825 56.311l5.4 10.756L113.484 88.5c-8.188-.81-14.583-7.688-14.583-16.054V56.31h25.925z"/>
            <path fill="#DF8853" d="M115.103 88.58c-.547 0-1.087-.028-1.62-.081V78.362c0-6.238 5.077-11.295 11.341-11.295V50.933a3.234 3.234 0 0 1 3.241-3.227c1.79 0 3.24 1.444 3.24 3.226v21.513c0 8.911-7.254 16.135-16.202 16.135z"/>
            <path fill="#FEAB75" d="M64.603 59v76.37h13.503l2.7-76.37z"/>
            <path fill="#FF9B5F" d="M78.106 59h6.481v76.37h-6.481zM68.114 15.244c1.79 0 3.24 1.444 3.24 3.227l5.453 34.588H62.173l2.7-17.916V18.47a3.233 3.233 0 0 1 3.24-3.226z"/>
            <path fill="#FEBB8E" d="M84.317 21.697a3.234 3.234 0 0 1 3.24-3.227c1.79 0 3.241 1.445 3.241 3.227v18.824l-14.66 10.336 8.179-29.16z"/>
            <path fill="#FF9B5F" d="M77.025 18.47a3.234 3.234 0 0 1 3.241-3.226c1.79 0 3.24 1.444 3.24 3.227v34.588H71.574l5.452-34.588z"/>
            <path fill="#FEBB8E" d="M74.595 11.017c1.79 0 3.24 1.445 3.24 3.227v37.303h-6.48V14.244a3.233 3.233 0 0 1 3.24-3.227z"/>
            <path fill="#FEAB75" d="M64.873 41.521l-5.401 10.756L76.215 73.71c8.188-.809 14.583-7.687 14.583-16.053V41.52H64.873z"/>
            <path fill="#FEBB8E" d="M74.595 72.983c.547 0 1.087-.028 1.62-.08V62.765c0-6.237-5.077-11.295-11.342-11.295V35.336a3.234 3.234 0 0 0-3.24-3.227 3.234 3.234 0 0 0-3.241 3.227v21.512c0 8.912 7.254 16.135 16.203 16.135z"/>
            <path fill="#37474F" d="M72.164 43.516a2.021 2.021 0 0 0 2.026-2.017V13.017A2.021 2.021 0 0 0 72.164 11a2.021 2.021 0 0 0-2.025 2.017v28.482c0 1.114.907 2.017 2.025 2.017zM83.517 43.516a2.021 2.021 0 0 0 2.026-2.017V16.685a2.021 2.021 0 0 0-2.026-2.017 2.021 2.021 0 0 0-2.025 2.017v24.814c0 1.114.907 2.017 2.025 2.017z"/>
            <path fill="#37474F" d="M67.428 49.413V17.531a2.021 2.021 0 0 0-2.026-2.016 2.021 2.021 0 0 0-2.025 2.016V51.28c0 1.114.907 2.017 2.025 2.017 5.244 0 9.51 4.248 9.51 9.47 0 1.113.906 2.016 2.025 2.016a2.021 2.021 0 0 0 2.025-2.016c0-6.761-5.015-12.377-11.534-13.353zM90.82 18.713a2.021 2.021 0 0 0-2.026 2.016v36.478c0 5.032-2.72 9.725-7.1 12.248a2.012 2.012 0 0 0-.74 2.756 2.026 2.026 0 0 0 2.768.736c.163-.093.323-.19.481-.288v64.324c0 1.114.907 2.017 2.026 2.017a2.021 2.021 0 0 0 2.025-2.017V69.248c2.908-3.28 4.591-7.555 4.591-12.041V20.73a2.021 2.021 0 0 0-2.025-2.017z"/>
            <path fill="#37474F" d="M67.496 69.456c-4.38-2.524-7.1-7.217-7.1-12.249V33.058a2.021 2.021 0 0 0-2.026-2.017 2.021 2.021 0 0 0-2.025 2.017v24.149c0 6.07 3.08 11.757 8.111 15.112v64.664c0 1.114.907 2.017 2.026 2.017a2.021 2.021 0 0 0 2.025-2.017V71.202c0-.72-.385-1.386-1.011-1.746zM31.873 76.466a2.021 2.021 0 0 0 2.025-2.017V45.43a2.021 2.021 0 0 0-2.025-2.016 2.021 2.021 0 0 0-2.026 2.016v29.02a2.02 2.02 0 0 0 2.026 2.017zM43.496 76.466a2.021 2.021 0 0 0 2.025-2.017V49.067a2.021 2.021 0 0 0-2.025-2.017 2.021 2.021 0 0 0-2.026 2.017v25.382c0 1.114.907 2.017 2.026 2.017z"/>
            <path fill="#37474F" d="M27.136 81.019V49.137a2.021 2.021 0 0 0-2.026-2.017 2.021 2.021 0 0 0-2.025 2.017v33.748c0 1.114.907 2.017 2.025 2.017 5.244 0 9.51 4.248 9.51 9.47 0 1.114.906 2.017 2.025 2.017a2.021 2.021 0 0 0 2.025-2.017c0-6.76-5.015-12.376-11.534-13.353zM50.258 50.856a2.021 2.021 0 0 0-2.026 2.017V89.62c0 5.031-2.72 9.725-7.1 12.248a2.012 2.012 0 0 0-.74 2.756 2.026 2.026 0 0 0 2.769.736c.162-.094.322-.19.48-.288v31.373c0 1.114.907 2.017 2.026 2.017a2.021 2.021 0 0 0 2.025-2.017V101.66c2.908-3.28 4.591-7.555 4.591-12.04V52.872a2.022 2.022 0 0 0-2.025-2.017z"/>
            <path fill="#37474F" d="M27.204 101.33c-4.38-2.523-7.1-7.216-7.1-12.248V67.084a2.021 2.021 0 0 0-2.026-2.017 2.021 2.021 0 0 0-2.025 2.017v21.998c0 6.07 3.08 11.756 8.111 15.112v31.713c0 1.114.907 2.017 2.026 2.017a2.021 2.021 0 0 0 2.025-2.017v-32.831c0-.72-.385-1.385-1.011-1.746zM117.858 60.332a2.021 2.021 0 0 0 2.025-2.017V29.151a2.021 2.021 0 0 0-2.025-2.017 2.021 2.021 0 0 0-2.026 2.017v29.164a2.02 2.02 0 0 0 2.026 2.017zM106.121 60.332a2.021 2.021 0 0 0 2.026-2.017V32.513a2.021 2.021 0 0 0-2.026-2.017 2.021 2.021 0 0 0-2.025 2.017v25.802c0 1.114.907 2.017 2.025 2.017z"/>
            <path fill="#37474F" d="M126.915 66.751V32.465a2.021 2.021 0 0 0-2.025-2.017 2.021 2.021 0 0 0-2.026 2.017v32.409c-2.956.413-5.669 1.727-7.788 3.804a13.285 13.285 0 0 0-4.016 9.56c0 1.114.906 2.017 2.025 2.017a2.021 2.021 0 0 0 2.025-2.017c0-5.31 4.296-9.47 9.78-9.47a2.021 2.021 0 0 0 2.025-2.017zM108.047 84.652a14.132 14.132 0 0 1-2.896-2.18 2.036 2.036 0 0 0-.396-.402c-2.401-2.543-3.797-5.918-3.797-9.464V36.873a2.021 2.021 0 0 0-2.026-2.016 2.021 2.021 0 0 0-2.025 2.016v35.733c0 4.43 1.683 8.651 4.591 11.891v50.873c0 1.114.907 2.017 2.025 2.017a2.021 2.021 0 0 0 2.026-2.017V87.865c.162.099.326.196.492.29a2.027 2.027 0 0 0 2.763-.752c.554-.968.215-2.2-.757-2.751z"/>
            <path fill="#37474F" d="M131.922 46.782a2.021 2.021 0 0 0-2.026 2.016V72.41c0 5.033-2.72 9.726-7.1 12.249a2.015 2.015 0 0 0-1.011 1.746v48.966c0 1.114.907 2.017 2.025 2.017a2.021 2.021 0 0 0 2.025-2.017V87.522c5.032-3.356 8.112-9.042 8.112-15.113V48.8a2.02 2.02 0 0 0-2.025-2.017z"/>
        </g>
    </g>
</svg>
