<svg xmlns="http://www.w3.org/2000/svg" xmlns:xlink="http://www.w3.org/1999/xlink" width="149" height="149" viewBox="0 0 149 149">
    <defs>
        <path id="a" d="M0 0h149v149H0z"/>
    </defs>
    <g fill="none" fill-rule="evenodd">
        <mask id="b" fill="#fff">
            <use xlink:href="#a"/>
        </mask>
        <use fill="#FFF" opacity=".1" xlink:href="#a"/>
        <g fill-rule="nonzero" mask="url(#b)">
            <path fill="#C8E6FF" d="M39.59 111.41L21.89 137.958h-8.848c0-14.661 11.885-26.547 26.546-26.547z"/>
            <path fill="#ADD9FF" d="M39.59 111.41c8.028 0 15.225 3.565 20.092 9.198l-11.229 17.35H21.891c0-14.662 7.924-26.548 17.698-26.548z"/>
            <path fill="#ED2F49" d="M110.411 111.41l17.698 26.547h8.849c0-14.661-11.886-26.547-26.547-26.547z"/>
            <path fill="#FF455E" d="M110.411 111.41c-8.03 0-15.225 3.565-20.093 9.198l11.229 17.35h26.562c0-14.662-7.924-26.548-17.698-26.548z"/>
            <path fill="#A0613C" d="M57.295 45.225v26.832c7.409 0 13.416-6.006 13.416-13.415 0-7.41-6.007-13.416-13.416-13.416z"/>
            <path fill="#BF7447" d="M65.701 58.642c0-7.41-3.764-13.417-8.406-13.417-7.41 0-13.416 6.007-13.416 13.416 0 7.41 6.006 13.416 13.416 13.416 4.642 0 8.406-6.006 8.406-13.415z"/>
            <path fill="#FEBB8E" d="M75 76.545v26.844c7.413 0 13.422-6.009 13.422-13.422S82.413 76.545 75 76.545z"/>
            <path fill="#FCD5A2" d="M83.41 89.967c0-7.413-3.765-13.422-8.41-13.422-7.413 0-13.422 6.01-13.422 13.422 0 7.413 6.01 13.422 13.422 13.422 4.645 0 8.41-6.009 8.41-13.422z"/>
            <path fill="#FEAB75" d="M39.59 76v27.934c7.713 0 13.966-6.253 13.966-13.967S47.303 76 39.59 76z"/>
            <path fill="#FF9B5F" d="M48.341 89.967c0-7.713-3.918-13.967-8.752-13.967-7.713 0-13.967 6.253-13.967 13.967s6.254 13.967 13.967 13.967c4.834 0 8.752-6.253 8.752-13.967z"/>
            <path fill="#804E30" d="M110.411 76.544v26.846c7.413 0 13.422-6.01 13.422-13.422 0-7.414-6.009-13.424-13.422-13.424z"/>
            <path fill="#A0613C" d="M118.821 89.967c0-7.413-3.765-13.422-8.41-13.422-7.413 0-13.423 6.009-13.423 13.422s6.01 13.423 13.423 13.423c4.645 0 8.41-6.01 8.41-13.423z"/>
            <path fill="#FFBB02" d="M75 111.41l17.698 26.547h8.849c0-14.661-11.885-26.547-26.547-26.547z"/>
            <path fill="#FFCC3D" d="M75 111.41c-14.661 0-26.547 11.886-26.547 26.547h44.245c0-14.661-7.923-26.547-17.698-26.547z"/>
            <path fill="#FEAB75" d="M92.706 45.225v26.832c7.409 0 13.415-6.006 13.415-13.415 0-7.41-6.006-13.416-13.415-13.416z"/>
            <path fill="#FEBB8E" d="M101.112 58.642c0-7.41-3.764-13.417-8.406-13.417-7.41 0-13.416 6.007-13.416 13.416 0 7.41 6.006 13.416 13.415 13.416 4.643 0 8.407-6.006 8.407-13.415z"/>
            <path fill="#37474F" d="M57.295 73.958c8.445 0 15.316-6.871 15.316-15.316 0-8.446-6.871-15.316-15.316-15.316-8.446 0-15.316 6.87-15.316 15.316 0 8.445 6.87 15.316 15.316 15.316zm0-26.547c6.192 0 11.23 5.038 11.23 11.23 0 6.193-5.038 11.231-11.23 11.231-6.193 0-11.231-5.038-11.231-11.23 0-6.193 5.038-11.231 11.23-11.231z"/>
            <path fill="#37474F" d="M57.28 65.787a7.142 7.142 0 0 0 5.922-3.15 2.043 2.043 0 0 0-3.385-2.288 3.063 3.063 0 0 1-2.538 1.353 3.068 3.068 0 0 1-2.52-1.326 2.043 2.043 0 0 0-3.359 2.325 7.154 7.154 0 0 0 5.88 3.086zM59.684 89.967c0 8.445 6.871 15.316 15.316 15.316s15.316-6.87 15.316-15.316c0-8.445-6.87-15.316-15.316-15.316-8.445 0-15.316 6.871-15.316 15.316zm26.547 0c0 6.193-5.038 11.231-11.23 11.231-6.194 0-11.232-5.038-11.232-11.23 0-6.194 5.038-11.231 11.231-11.231s11.231 5.038 11.231 11.23z"/>
            <path fill="#37474F" d="M72.465 91.702a2.043 2.043 0 1 0-3.36 2.325 7.142 7.142 0 0 0 11.8-.064 2.043 2.043 0 0 0-3.383-2.289 3.063 3.063 0 0 1-2.538 1.353 3.066 3.066 0 0 1-2.519-1.325z"/>
            <path fill="#FEBB8E" d="M75 12.545V39.39c7.413 0 13.422-6.01 13.422-13.423S82.413 12.545 75 12.545z"/>
            <path fill="#FCD5A2" d="M83.41 25.967c0-7.413-3.765-13.422-8.41-13.422-7.413 0-13.422 6.01-13.422 13.422 0 7.413 6.01 13.423 13.422 13.423 4.645 0 8.41-6.01 8.41-13.423z"/>
            <path fill="#37474F" d="M59.684 25.967c0 8.446 6.871 15.316 15.316 15.316s15.316-6.87 15.316-15.316c0-8.445-6.87-15.316-15.316-15.316-8.445 0-15.316 6.871-15.316 15.316zm26.547 0c0 6.193-5.038 11.231-11.23 11.231-6.194 0-11.232-5.038-11.232-11.23 0-6.194 5.038-11.232 11.231-11.232s11.231 5.038 11.231 11.231z"/>
            <path fill="#37474F" d="M72.465 27.702a2.043 2.043 0 1 0-3.36 2.324 7.142 7.142 0 0 0 11.8-.064 2.043 2.043 0 0 0-3.383-2.288 3.063 3.063 0 0 1-2.538 1.354 3.066 3.066 0 0 1-2.519-1.326zM39.59 105.283c8.445 0 15.316-6.87 15.316-15.316 0-8.445-6.871-15.316-15.316-15.316-8.446 0-15.317 6.871-15.317 15.316s6.871 15.316 15.316 15.316zm0-26.547c6.192 0 11.23 5.038 11.23 11.231s-5.038 11.23-11.23 11.23c-6.193 0-11.231-5.037-11.231-11.23 0-6.192 5.037-11.23 11.23-11.23z"/>
            <path fill="#37474F" d="M39.59 97.113a7.142 7.142 0 0 0 5.922-3.15 2.043 2.043 0 0 0-3.385-2.288 3.063 3.063 0 0 1-2.538 1.353 3.068 3.068 0 0 1-2.52-1.326 2.043 2.043 0 1 0-3.359 2.325 7.154 7.154 0 0 0 5.88 3.086zM52.12 114.46a2.043 2.043 0 0 0-1.049-2.691 28.378 28.378 0 0 0-11.481-2.4C23.825 109.367 11 122.192 11 137.956a2.042 2.042 0 1 0 4.085 0c0-13.511 10.993-24.504 24.505-24.504 3.422 0 6.732.692 9.838 2.056a2.043 2.043 0 0 0 2.692-1.049zM95.095 89.967c0 8.445 6.87 15.316 15.316 15.316 8.445 0 15.316-6.87 15.316-15.316 0-8.445-6.87-15.316-15.316-15.316-8.445 0-15.316 6.871-15.316 15.316zm15.316-11.23c6.192 0 11.23 5.038 11.23 11.23 0 6.193-5.038 11.23-11.23 11.23-6.193 0-11.231-5.037-11.231-11.23 0-6.192 5.038-11.23 11.23-11.23z"/>
            <path fill="#37474F" d="M110.395 97.113a7.142 7.142 0 0 0 5.922-3.15 2.043 2.043 0 0 0-3.384-2.288 3.063 3.063 0 0 1-2.538 1.353 3.068 3.068 0 0 1-2.52-1.326 2.043 2.043 0 1 0-3.359 2.325 7.153 7.153 0 0 0 5.88 3.086zM110.41 109.368c-3.99 0-7.853.808-11.48 2.4a2.043 2.043 0 1 0 1.642 3.741 24.314 24.314 0 0 1 9.839-2.056c13.511 0 24.504 10.993 24.504 24.504a2.042 2.042 0 1 0 4.085 0c0-15.764-12.825-28.589-28.59-28.589zM75 109.368c-15.764 0-28.59 12.825-28.59 28.59a2.042 2.042 0 1 0 4.086 0c0-13.512 10.992-24.505 24.504-24.505s24.504 10.993 24.504 24.504a2.042 2.042 0 1 0 4.085 0c0-15.764-12.825-28.589-28.589-28.589zM77.39 58.642c0 8.445 6.87 15.316 15.315 15.316s15.316-6.871 15.316-15.316c0-8.446-6.87-15.316-15.316-15.316-8.445 0-15.316 6.87-15.316 15.316zM92.705 47.41c6.192 0 11.23 5.038 11.23 11.23 0 6.193-5.038 11.231-11.23 11.231-6.193 0-11.231-5.038-11.231-11.23 0-6.193 5.038-11.231 11.23-11.231z"/>
            <path fill="#37474F" d="M92.69 65.787a7.142 7.142 0 0 0 5.922-3.15 2.043 2.043 0 0 0-3.384-2.288 3.063 3.063 0 0 1-2.538 1.353 3.068 3.068 0 0 1-2.52-1.326 2.042 2.042 0 1 0-3.359 2.325 7.153 7.153 0 0 0 5.879 3.086z"/>
        </g>
    </g>
</svg>
