<svg xmlns="http://www.w3.org/2000/svg" xmlns:xlink="http://www.w3.org/1999/xlink" width="150" height="150" viewBox="0 0 150 150">
    <defs>
        <path id="a" d="M0 0h150v150H0z"/>
    </defs>
    <g fill="none" fill-rule="evenodd">
        <mask id="b" fill="#fff">
            <use xlink:href="#a"/>
        </mask>
        <use fill="#FFF" opacity=".1" xlink:href="#a"/>
        <g fill-rule="nonzero" mask="url(#b)">
            <path fill="#FF9B5F" d="M35.245 38.627A5.94 5.94 0 0 0 29.3 44.56V83.5h11.892V44.56a5.94 5.94 0 0 0-5.946-5.934z"/>
            <path fill="#FEBB8E" d="M33.021 78.065V44.56c0-3.278-2.662-5.934-5.946-5.934s-5.946 2.657-5.946 5.934l.033 37.413c.001 1.354.547 3.428 1.212 4.608l23.552 38.067c.665 1.18 1.21 3.254 1.21 4.609v7.454h23.78v-12.775L60.946 99.61 33.021 78.065z"/>
            <path fill="#FCD5A2" d="M70.916 108.946c0-4.063-2.356-9.738-5.234-12.611l-22.51-22.467a5.954 5.954 0 0 0-8.41 0 5.926 5.926 0 0 0 0 8.393l18.172 18.135v5.33c0 10.057 7.904 18.21 17.982 18.21v-14.99z"/>
            <path fill="#FF9B5F" d="M114.755 38.627a5.94 5.94 0 0 1 5.946 5.934V83.5h-11.892V44.56a5.94 5.94 0 0 1 5.946-5.934z"/>
            <path fill="#FEBB8E" d="M116.98 78.065V44.56c0-3.278 2.662-5.934 5.946-5.934s5.945 2.657 5.945 5.934l-.033 37.413c0 1.354-.546 3.428-1.211 4.608l-23.553 38.067c-.665 1.18-1.209 3.254-1.209 4.609v7.454h-23.78v-12.775l9.968-24.327 27.927-21.545z"/>
            <path fill="#FCD5A2" d="M79.085 108.946c0-4.063 2.356-9.738 5.234-12.611l22.51-22.467a5.954 5.954 0 0 1 8.41 0 5.926 5.926 0 0 1 0 8.393l-18.172 18.135v5.33c0 10.057-7.904 18.21-17.981 18.21v-14.99z"/>
            <path fill="#FD7" d="M84.238 13.039c6.516 0 12.686 4.189 17.18 4.189v42.848c-4.495 0-10.665-4.19-17.18-4.19-7.683 0-9.433 4.718-9.433 4.718L66.19 43.158l8.421-23.5s1.945-6.62 9.628-6.62z"/>
            <path fill="#F9F0B5" d="M65.561 13.039c-6.387 0-12.436 4.189-16.842 4.189v42.848c4.406 0 10.455-4.19 16.842-4.19 7.532 0 9.244 4.718 9.244 4.718L75 19.658s-1.907-6.62-9.439-6.62z"/>
            <path fill="#37474F" d="M44.616 72.427a7.943 7.943 0 0 0-5.649-2.335c-1.39 0-2.724.353-3.903 1.015V44.56c0-1.348-.339-2.62-.933-3.734a3.904 3.904 0 0 1 5.018 3.734v19.6a2.04 2.04 0 0 0 2.042 2.038 2.04 2.04 0 0 0 2.043-2.038v-19.6c0-4.396-3.584-7.973-7.989-7.973a7.967 7.967 0 0 0-4.087 1.123 7.949 7.949 0 0 0-4.083-1.123c-4.404 0-7.988 3.577-7.988 7.975l.033 37.412c.001 1.708.635 4.118 1.473 5.606l.043.073 23.528 38.026c.489.89.93 2.58.93 3.578v7.454a2.04 2.04 0 0 0 2.042 2.039 2.04 2.04 0 0 0 2.042-2.039v-7.454c0-1.708-.632-4.119-1.47-5.608a3.046 3.046 0 0 0-.043-.072L24.136 85.55c-.488-.89-.93-2.582-.931-3.58l-.033-37.41a3.904 3.904 0 0 1 7.807 0v33.504c0 .048.003.095.007.142a7.937 7.937 0 0 0 2.332 5.496l18.295 18.259a2.045 2.045 0 0 0 2.889 0 2.036 2.036 0 0 0 0-2.883l-18.295-18.26a3.866 3.866 0 0 1-1.144-2.754c0-1.041.406-2.02 1.144-2.755a3.914 3.914 0 0 1 5.52 0l22.51 22.467c2.513 2.508 4.636 7.622 4.636 11.169v27.766a2.04 2.04 0 0 0 2.042 2.038 2.04 2.04 0 0 0 2.043-2.038v-27.766c0-4.616-2.562-10.789-5.832-14.053l-22.51-22.466zM122.926 36.588c-1.491 0-2.887.41-4.083 1.123a7.966 7.966 0 0 0-4.088-1.123c-4.404 0-7.988 3.577-7.988 7.972v19.6a2.04 2.04 0 0 0 2.043 2.039 2.04 2.04 0 0 0 2.042-2.039v-19.6a3.904 3.904 0 0 1 5.018-3.733 7.911 7.911 0 0 0-.933 3.734v26.546a7.956 7.956 0 0 0-3.903-1.016c-2.134 0-4.14.83-5.649 2.336l-22.51 22.466c-3.27 3.264-5.832 9.437-5.832 14.053v27.765a2.04 2.04 0 0 0 2.042 2.039 2.04 2.04 0 0 0 2.043-2.039v-27.765c0-3.547 2.123-8.662 4.635-11.17l22.51-22.466a3.913 3.913 0 0 1 5.52 0 3.867 3.867 0 0 1 1.144 2.755c0 1.04-.406 2.019-1.144 2.754L95.5 99.08a2.036 2.036 0 0 0 0 2.883 2.045 2.045 0 0 0 2.888 0l18.295-18.26a7.935 7.935 0 0 0 2.332-5.495c.004-.047.008-.094.008-.142V44.56a3.904 3.904 0 0 1 7.806-.002l-.033 37.413c0 .997-.442 2.69-.931 3.58l-23.529 38.026a2.619 2.619 0 0 0-.042.072c-.839 1.49-1.472 3.9-1.472 5.608v7.454a2.04 2.04 0 0 0 2.043 2.039 2.04 2.04 0 0 0 2.042-2.039v-7.454c0-.997.441-2.689.93-3.578l23.528-38.026.042-.073c.839-1.488 1.472-3.898 1.473-5.605l.034-37.415c.001-4.397-3.583-7.973-7.987-7.973z"/>
            <path fill="#37474F" d="M48.992 61.966c2.322 0 4.831-.867 7.487-1.785 2.985-1.031 6.07-2.098 9.181-2.098 1.621 0 3.048.346 4.24 1.028.98.56 2.227.221 2.788-.755a2.037 2.037 0 0 0-.757-2.783c-1.819-1.04-3.929-1.567-6.27-1.567-3.798 0-7.369 1.234-10.519 2.322-1.455.503-2.859.989-4.107 1.281V18.765c1.73-.306 3.55-.935 5.444-1.59 2.984-1.031 6.07-2.098 9.181-2.098 5.092 0 6.9 3.503 7.298 4.461v30.757a2.04 2.04 0 0 0 2.043 2.039 2.04 2.04 0 0 0 2.042-2.039V19.536c.395-.953 2.195-4.459 7.298-4.459 3.11 0 6.197 1.067 9.181 2.098 1.895.655 3.714 1.284 5.445 1.59V57.61c-1.249-.292-2.653-.778-4.108-1.28-3.15-1.09-6.72-2.323-10.518-2.323-2.342 0-4.452.527-6.27 1.567a2.037 2.037 0 0 0-.758 2.782 2.046 2.046 0 0 0 2.788.756c1.193-.682 2.62-1.028 4.24-1.028 3.11 0 6.197 1.067 9.181 2.098 2.656.918 5.165 1.785 7.487 1.785a2.04 2.04 0 0 0 2.043-2.038V16.92a2.04 2.04 0 0 0-2.043-2.038c-1.635 0-3.828-.758-6.15-1.56C91.71 12.233 88.14 11 84.34 11c-4.517 0-7.536 2.013-9.34 4.152C73.196 13.013 70.178 11 65.66 11c-3.798 0-7.368 1.234-10.518 2.322-2.322.803-4.515 1.56-6.15 1.56a2.04 2.04 0 0 0-2.042 2.04v43.005a2.04 2.04 0 0 0 2.042 2.039zM84.34 66.165c3.111 0 6.197 1.067 9.182 2.098 2.656.918 5.164 1.785 7.487 1.785a2.04 2.04 0 0 0 2.043-2.039 2.04 2.04 0 0 0-2.043-2.038c-1.635 0-3.828-.758-6.15-1.56-3.15-1.089-6.72-2.323-10.518-2.323-4.007 0-6.665 1.544-8.313 3.068h-2.055c-1.648-1.524-4.306-3.068-8.313-3.068-3.798 0-7.368 1.234-10.518 2.323-2.322.802-4.515 1.56-6.15 1.56a2.04 2.04 0 0 0-2.042 2.038 2.04 2.04 0 0 0 2.042 2.039c2.322 0 4.831-.867 7.487-1.785 2.985-1.031 6.07-2.098 9.181-2.098 2.493 0 4.497.809 5.957 2.404.386.423.934.664 1.508.664h3.752c.573 0 1.12-.241 1.508-.664 1.459-1.595 3.463-2.404 5.955-2.404z"/>
        </g>
    </g>
</svg>
