<svg xmlns="http://www.w3.org/2000/svg" xmlns:xlink="http://www.w3.org/1999/xlink" width="150" height="150" viewBox="0 0 150 150">
    <defs>
        <path id="a" d="M0 0h150v150H0z"/>
    </defs>
    <g fill="none" fill-rule="evenodd">
        <mask id="b" fill="#fff">
            <use xlink:href="#a"/>
        </mask>
        <use fill="#FFF" opacity=".1" xlink:href="#a"/>
        <g fill-rule="nonzero" mask="url(#b)">
            <path fill="#94C8EF" d="M96.468 48.485l-5.315 43.668 5.315 43.667h38.868V48.485z"/>
            <path fill="#7AB6DE" d="M80.522 48.485l7.973 87.335h7.973V48.485z"/>
            <path fill="#94C8EF" d="M52.518 14.18l-37.04 10.925v10.11h74.08v-10.11z"/>
            <path fill="#ADD9FF" d="M51.455 24.29l-37.04 10.924V135.82h23.752l13.288-5.347 13.288 5.347h23.752V35.214z"/>
            <path fill="#BF7447" d="M38.166 93.802h26.576v42.018H38.166z"/>
            <path fill="#FFF" d="M43.67 31.938c-6.171 0-12.01 3.819-16.266 3.819v36.951c4.256 0 10.095-3.818 16.265-3.818 7.272 0 9.115 6.035 9.115 6.035l5.315-18.476-5.315-18.476s-1.843-6.035-9.115-6.035z"/>
            <path fill="#E4F2FF" d="M61.899 31.938c-7.272 0-9.115 6.035-9.115 6.035v36.952s1.843-6.035 9.115-6.035c6.17 0 12.01 3.818 16.265 3.818V35.757c-4.256 0-10.095-3.82-16.265-3.82z"/>
            <path fill="#37474F" d="M105.53 122.798a2 2 0 0 0 1.993-2.005v-9.076a2 2 0 0 0-1.993-2.005 1.999 1.999 0 0 0-1.993 2.005v9.076a2 2 0 0 0 1.993 2.005zM121.144 122.798a2 2 0 0 0 1.993-2.005v-9.076a2 2 0 0 0-1.993-2.005 1.999 1.999 0 0 0-1.993 2.005v9.076c0 1.108.892 2.005 1.993 2.005zM105.53 98.696a2 2 0 0 0 1.993-2.005v-9.076a2 2 0 0 0-1.993-2.005 1.999 1.999 0 0 0-1.993 2.005v9.076a2 2 0 0 0 1.993 2.005zM121.144 98.696a2 2 0 0 0 1.993-2.005v-9.076a2 2 0 0 0-1.993-2.005 1.999 1.999 0 0 0-1.993 2.005v9.076c0 1.107.892 2.005 1.993 2.005zM105.53 74.593a2 2 0 0 0 1.993-2.005v-9.076a2 2 0 0 0-1.993-2.005 1.999 1.999 0 0 0-1.993 2.005v9.076a2 2 0 0 0 1.993 2.005zM121.144 74.593a2 2 0 0 0 1.993-2.005v-9.076a2 2 0 0 0-1.993-2.005 1.999 1.999 0 0 0-1.993 2.005v9.076c0 1.107.892 2.005 1.993 2.005z"/>
            <path fill="#37474F" d="M136.757 46.48H91.91V27.782l.289.085a1.984 1.984 0 0 0 2.473-1.36 2.007 2.007 0 0 0-1.352-2.488l-2.809-.828a.062.062 0 0 0-.006-.002L53.438 12.256a1.988 1.988 0 0 0-1.122 0L15.248 23.189a.062.062 0 0 0-.006.001l-2.809.829a2.007 2.007 0 0 0-1.352 2.488 1.992 1.992 0 0 0 2.474 1.36l.289-.085V135.82c0 1.107.892 2.005 1.993 2.005h120.92a1.999 1.999 0 0 0 1.994-2.005V48.485a2 2 0 0 0-1.994-2.005zm-72.586 87.335h-22.59V95.806h22.59v38.009zm70.593 0H91.91V127.8a1.999 1.999 0 0 0-1.993-2.005 2 2 0 0 0-1.993 2.005v6.015H68.158V93.8a1.999 1.999 0 0 0-1.993-2.005H39.588a1.999 1.999 0 0 0-1.993 2.005v40.014H17.83V26.606L52.876 16.27l35.047 10.337v93.173c0 1.108.893 2.005 1.993 2.005a2 2 0 0 0 1.993-2.005V50.49h42.855v83.325z"/>
            <path fill="#37474F" d="M78.257 33.78c-1.596 0-3.736-.747-6.002-1.536-3.073-1.07-6.558-2.284-10.264-2.284-4.408 0-7.354 1.98-9.114 4.084-1.76-2.104-4.707-4.084-9.115-4.084-3.706 0-7.19 1.214-10.264 2.284-2.266.79-4.406 1.535-6.001 1.535a1.999 1.999 0 0 0-1.994 2.005v36.952c0 1.107.893 2.005 1.994 2.005 2.266 0 4.714-.853 7.305-1.755 2.913-1.015 5.925-2.064 8.96-2.064 1.58 0 2.973.34 4.137 1.01.955.551 2.173.218 2.72-.742a2.012 2.012 0 0 0-.738-2.737c-1.775-1.023-3.834-1.541-6.119-1.541-3.706 0-7.19 1.213-10.264 2.284-1.42.494-2.79.972-4.008 1.26V37.596c1.689-.301 3.464-.92 5.313-1.564 2.912-1.014 5.924-2.064 8.959-2.064 4.968 0 6.732 3.446 7.122 4.388v24.905c0 1.107.892 2.005 1.993 2.005a2 2 0 0 0 1.993-2.005V38.36c.4-.966 2.169-4.39 7.121-4.39 3.036 0 6.048 1.049 8.96 2.063 1.849.644 3.624 1.263 5.313 1.565v32.857c-1.218-.287-2.589-.764-4.009-1.259-3.073-1.07-6.558-2.284-10.264-2.284-2.285 0-4.343.518-6.118 1.541a2.011 2.011 0 0 0-.74 2.737 1.987 1.987 0 0 0 2.72.743c1.165-.67 2.557-1.01 4.138-1.01 3.036 0 6.048 1.048 8.96 2.063 2.592.903 5.04 1.755 7.306 1.755a2 2 0 0 0 1.993-2.005V35.784a1.999 1.999 0 0 0-1.993-2.005z"/>
        </g>
    </g>
</svg>
