<svg xmlns="http://www.w3.org/2000/svg" xmlns:xlink="http://www.w3.org/1999/xlink" width="40" height="40" viewBox="0 0 40 40">
    <defs>
        <rect id="a" width="30" height="21.429" rx="2"/>
        <path id="c" d="M5 4.286L0 0h.714l5 3.571h1.429L12.857 0v.39a.72.72 0 0 1-.269.516l-4.73 3.38v1.428l4.744 4.068c.141.12.104.218-.069.218h-.066c-.18 0-.448-.088-.593-.192l-4.731-3.38H5.714L0 10v-.714l5-3.572V4.286z"/>
        <linearGradient id="d" x1="50%" x2="50%" y1="0%" y2="100%">
            <stop offset="0%" stop-color="#FFF"/>
            <stop offset="100%" stop-color="#F0F0F0"/>
        </linearGradient>
        <linearGradient id="e" x1="50%" x2="50%" y1="0%" y2="100%">
            <stop offset="0%" stop-color="#FF2E3B"/>
            <stop offset="100%" stop-color="#FC0D1B"/>
        </linearGradient>
    </defs>
    <g fill="none" fill-rule="evenodd">
        <path fill="#FFF" d="M0 0h40v40H0z" opacity=".01"/>
        <g transform="translate(5 9)">
            <mask id="b" fill="#fff">
                <use xlink:href="#a"/>
            </mask>
            <use fill="#FFF" xlink:href="#a"/>
            <path fill="#0A17A7" d="M0 0h30v21.429H0z" mask="url(#b)"/>
            <g mask="url(#b)">
                <use fill="#FF2E3B" xlink:href="#c"/>
                <path stroke="#FFF" stroke-width=".667" d="M4.667 4.439L-.901-.333H.714l.194.062 4.913 3.51h1.226l6.143-3.84V.39c0 .286-.175.62-.408.787L8.19 4.458V5.56l4.63 3.967c.368.317.204.805-.287.805h-.066c-.248 0-.584-.11-.787-.254L7.036 6.762H5.81l-6.143 3.84V9.113l5-3.571V4.439z"/>
            </g>
            <path fill="url(#d)" d="M0 3.571V6.43h5v3.616c0 .37.306.67.663.67h1.531a.672.672 0 0 0 .663-.67V6.429h5.048a.67.67 0 0 0 .666-.663V4.234a.67.67 0 0 0-.666-.663H7.857V0H5v3.571H0z" mask="url(#b)"/>
            <path fill="url(#e)" d="M0 4.286h5.714V0h1.429V4.286h5.714v1.428H7.143V10H5.714V5.714H0z" mask="url(#b)"/>
            <path fill="#FFF" d="M6.429 17.5l-1.26.662.24-1.402-1.018-.994 1.408-.204.63-1.276.63 1.276 1.408.204-1.02.994.241 1.402zM21.429 18.571l-1.01.296.295-1.01-.296-1.01 1.01.296 1.01-.296-.295 1.01.296 1.01zM21.429 5l-1.01.296.295-1.01-.296-1.01 1.01.295 1.01-.295-.295 1.01.296 1.01zM25.714 9.286l-1.01.296.296-1.01-.296-1.01 1.01.295 1.01-.296-.295 1.01.295 1.01zM17.143 10.714l-1.01.296.296-1.01-.296-1.01 1.01.296 1.01-.296-.296 1.01.296 1.01zM23.571 12.5l-.505.148.148-.505-.148-.505.505.148.506-.148-.148.505.148.505z" mask="url(#b)"/>
        </g>
    </g>
</svg>
