<svg xmlns="http://www.w3.org/2000/svg" xmlns:xlink="http://www.w3.org/1999/xlink" width="40" height="40" viewBox="0 0 40 40">
    <defs>
        <rect id="a" width="30" height="21.429" rx="2"/>
    </defs>
    <g fill="none" fill-rule="evenodd">
        <path fill="#FFF" d="M0 0h40v40H0z" opacity=".01"/>
        <g transform="translate(5 9)">
            <mask id="b" fill="#fff">
                <use xlink:href="#a"/>
            </mask>
            <use fill="#FFF" xlink:href="#a"/>
            <path fill="#F1361D" d="M0 0h30v21.429H0z" mask="url(#b)"/>
            <path fill="#FFDC42" d="M14.47 6.404l-.899.547.025-1.052L13.049 5l1.052.024.899-.547-.024 1.052.547.9-1.052-.025zM11.83 3.5l-1.038-.177.709-.778.177-1.038.778.71 1.038.176-.71.778-.176 1.038-.778-.709zm.522 9.327l-.88.578-.012-1.052-.578-.88 1.052-.012.88-.578.012 1.052.578.88-1.052.012zm1.81-2.837l-1.047.116.467-.943-.116-1.047.944.467 1.046-.116-.467.944.116 1.046-.943-.467zM7.143 8.814l-2.52 1.796.93-2.95-2.486-1.842 3.093-.027.983-2.934.982 2.934 3.094.027L8.732 7.66l.93 2.951z" mask="url(#b)"/>
        </g>
    </g>
</svg>
