<?xml version="1.0" encoding="UTF-8"?>
<svg width="172px" height="172px" viewBox="0 0 172 172" version="1.1" xmlns="http://www.w3.org/2000/svg" xmlns:xlink="http://www.w3.org/1999/xlink">
    <!-- Generator: Sketch 49.2 (51160) - http://www.bohemiancoding.com/sketch -->
    <title>contact_img1</title>
    <desc>Created with Sketch.</desc>
    <defs>
        <polygon id="path-1" points="0.01453125 0.78125 98.54375 0.78125 98.54375 99.219375 0.01453125 99.219375"></polygon>
    </defs>
    <g id="Page-1" stroke="none" stroke-width="1" fill="none" fill-rule="evenodd">
        <g id="图标切图" transform="translate(-62.000000, -1041.000000)">
            <g id="contact_img1" transform="translate(63.000000, 1042.000000)">
                <g id="Page-1" transform="translate(35.000000, 35.000000)">
                    <mask id="mask-2" fill="white">
                        <use xlink:href="#path-1"></use>
                    </mask>
                    <g id="Clip-1"></g>
                    <path d="M61.7796875,55.461875 C61.7796875,62.365 56.1828125,67.961875 49.2796875,67.961875 C42.3765625,67.961875 36.7796875,62.365 36.7796875,55.461875 C36.7796875,48.55875 42.3765625,42.961875 49.2796875,42.961875 C56.1828125,42.961875 61.7796875,48.55875 61.7796875,55.461875 Z" id="Stroke-2" stroke="#37474F" stroke-linecap="round" stroke-linejoin="round" mask="url(#mask-2)"></path>
                    <path d="M57.9471875,48.2340625 L58.8784375,47.4590625 C56.58625,44.7121875 53.1378125,42.9621875 49.28,42.9621875 C42.376875,42.9621875 36.78,48.5575 36.78,55.4621875 L37.9596875,55.4621875 C45.2628125,55.4621875 52.333125,52.904375 57.9471875,48.2340625" id="Fill-3" fill="#FFB300" mask="url(#mask-2)"></path>
                    <path d="M57.9471875,48.2340625 L58.8784375,47.4590625 C56.58625,44.7121875 53.1378125,42.9621875 49.28,42.9621875 C42.376875,42.9621875 36.78,48.5575 36.78,55.4621875 L37.9596875,55.4621875 C45.2628125,55.4621875 52.333125,52.904375 57.9471875,48.2340625 Z" id="Stroke-4" stroke="#37474F" stroke-linecap="round" stroke-linejoin="round" mask="url(#mask-2)"></path>
                    <path d="M49.29375,67.961875 C47.6296875,67.961875 46.04375,67.630625 44.5921875,67.04 L44.59375,69.5321875 L49.2859375,76.505625 L53.96875,69.5165625 L53.9671875,67.0509375 C52.521875,67.63375 50.946875,67.961875 49.29375,67.961875 Z" id="Stroke-5" stroke="#37474F" stroke-linecap="round" stroke-linejoin="round" mask="url(#mask-2)"></path>
                    <path d="M60.2171875,85.1567188 L60.2171875,96.0942188" id="Stroke-6" stroke="#37474F" stroke-linecap="round" stroke-linejoin="round" mask="url(#mask-2)"></path>
                    <path d="M38.3421875,85.1567188 L38.3421875,96.0942188" id="Stroke-7" stroke="#37474F" stroke-linecap="round" stroke-linejoin="round" mask="url(#mask-2)"></path>
                    <polygon id="Fill-8" fill="#90CAF9" mask="url(#mask-2)" points="53.1859375 95.313125 49.2953125 99.219375 45.3734375 95.313125 47.7171875 76.5053125 50.8421875 76.5053125"></polygon>
                    <polygon id="Stroke-9" stroke="#37474F" stroke-linecap="round" stroke-linejoin="round" mask="url(#mask-2)" points="53.1859375 95.313125 49.2953125 99.219375 45.3734375 95.313125 47.7171875 76.5053125 50.8421875 76.5053125"></polygon>
                    <polygon id="Stroke-10" stroke="#37474F" stroke-linecap="round" stroke-linejoin="round" mask="url(#mask-2)" points="44.5921875 69.5328125 43.8109375 76.50625 54.7484375 76.50625 53.9671875 69.51875 49.2859375 76.50625"></polygon>
                    <path d="M68.0296875,96.0942188 L68.0296875,80.8535938 C68.0296875,77.7692188 66.2140625,74.9723438 63.396875,73.7176563 L53.9671875,69.5176563 L49.2859375,76.5051563 L44.5921875,69.5332813 L35.1703125,73.7192188 C32.3484375,74.9739063 30.5296875,77.7723438 30.5296875,80.8598438 L30.5296875,96.0942188" id="Stroke-11" stroke="#37474F" stroke-linecap="round" stroke-linejoin="round" mask="url(#mask-2)"></path>
                    <path d="M32.0923438,45.8026562 C32.0923438,52.7057812 26.4954688,58.3026562 19.5923438,58.3026562 C12.6892188,58.3026562 7.09234375,52.7057812 7.09234375,45.8026562 C7.09234375,38.8995312 12.6892188,33.3026562 19.5923438,33.3026562 C26.4954688,33.3026562 32.0923438,38.8995312 32.0923438,45.8026562 Z" id="Stroke-12" stroke="#37474F" stroke-linecap="round" stroke-linejoin="round" mask="url(#mask-2)"></path>
                    <path d="M28.2596875,38.575 L29.1909375,37.8 C26.89875,35.053125 23.4503125,33.303125 19.5925,33.303125 C12.689375,33.303125 7.0925,38.8984375 7.0925,45.803125 L8.2721875,45.803125 C15.5753125,45.803125 22.645625,43.2453125 28.2596875,38.575" id="Fill-13" fill="#FFB300" mask="url(#mask-2)"></path>
                    <path d="M28.2596875,38.575 L29.1909375,37.8 C26.89875,35.053125 23.4503125,33.303125 19.5925,33.303125 C12.689375,33.303125 7.0925,38.8984375 7.0925,45.803125 L8.2721875,45.803125 C15.5753125,45.803125 22.645625,43.2453125 28.2596875,38.575 Z" id="Stroke-14" stroke="#37474F" stroke-linecap="round" stroke-linejoin="round" mask="url(#mask-2)"></path>
                    <path d="M19.60625,58.3026563 C17.9421875,58.3026563 16.35625,57.9714063 14.9046875,57.3807813 L14.90625,59.8729688 L19.5984375,66.8464063 L24.28125,59.8573438 L24.2796875,57.3917188 C22.834375,57.9745313 21.259375,58.3026563 19.60625,58.3026563 Z" id="Stroke-15" stroke="#37474F" stroke-linecap="round" stroke-linejoin="round" mask="url(#mask-2)"></path>
                    <path d="M8.65484375,75.4975 L8.65484375,86.435" id="Stroke-16" stroke="#37474F" stroke-linecap="round" stroke-linejoin="round" mask="url(#mask-2)"></path>
                    <polygon id="Fill-17" fill="#90CAF9" mask="url(#mask-2)" points="23.4985938 85.6539063 19.6079688 89.5601563 15.6860937 85.6539063 18.0298438 66.8460938 21.1548438 66.8460938"></polygon>
                    <polygon id="Stroke-18" stroke="#37474F" stroke-linecap="round" stroke-linejoin="round" mask="url(#mask-2)" points="23.4985938 85.6539063 19.6079688 89.5601563 15.6860937 85.6539063 18.0298438 66.8460938 21.1548438 66.8460938"></polygon>
                    <polygon id="Stroke-19" stroke="#37474F" stroke-linecap="round" stroke-linejoin="round" mask="url(#mask-2)" points="14.9048437 59.8735938 14.1235937 66.8470313 25.0610937 66.8470313 24.2798437 59.8595313 19.5985937 66.8470313"></polygon>
                    <path d="M38.0310937,69.0289062 C37.4014062,66.8507812 35.8467187,65.0101562 33.7092187,64.0585938 L24.2810937,59.8585937 L19.5982812,66.8460937 L14.9060937,59.8742187 L5.48265625,64.0601562 C2.66078125,65.3148437 0.84203125,68.1117187 0.84203125,71.2007813 L0.84203125,86.4351563" id="Stroke-20" stroke="#37474F" stroke-linecap="round" stroke-linejoin="round" mask="url(#mask-2)"></path>
                    <path d="M36.0115625,8.0353125 C36.9428125,18.2821875 45.0615625,26.4009375 55.3084375,27.3321875 C56.1771875,27.4103125 57.0365625,27.099375 57.6521875,26.4821875 L60.425625,23.7103125 C61.19125,22.9446875 61.19125,21.7025 60.425625,20.9384375 L57.65375,18.165 C56.888125,17.399375 55.6459375,17.399375 54.8803125,18.165 L53.719375,19.3275 C52.8240625,20.2228125 51.4459375,20.4603125 50.3146875,19.8915625 C47.350625,18.4040625 44.9396875,15.9915625 43.450625,13.0275 C42.8834375,11.89625 43.1209375,10.5196875 44.01625,9.624375 L45.1771875,8.461875 C45.9428125,7.69625 45.9428125,6.455625 45.1771875,5.69 L42.4053125,2.918125 C41.6396875,2.1525 40.3990625,2.1525 39.6334375,2.918125 L36.86,5.69 C36.244375,6.3071875 35.931875,7.1665625 36.0115625,8.0353125" id="Fill-21" fill="#9CCC65" mask="url(#mask-2)"></path>
                    <path d="M36.0115625,8.0353125 C36.9428125,18.2821875 45.0615625,26.4009375 55.3084375,27.3321875 C56.1771875,27.4103125 57.0365625,27.099375 57.6521875,26.4821875 L60.425625,23.7103125 C61.19125,22.9446875 61.19125,21.7025 60.425625,20.9384375 L57.65375,18.165 C56.888125,17.399375 55.6459375,17.399375 54.8803125,18.165 L53.719375,19.3275 C52.8240625,20.2228125 51.4459375,20.4603125 50.3146875,19.8915625 C47.350625,18.4040625 44.9396875,15.9915625 43.450625,13.0275 C42.8834375,11.89625 43.1209375,10.5196875 44.01625,9.624375 L45.1771875,8.461875 C45.9428125,7.69625 45.9428125,6.455625 45.1771875,5.69 L42.4053125,2.918125 C41.6396875,2.1525 40.3990625,2.1525 39.6334375,2.918125 L36.86,5.69 C36.244375,6.3071875 35.931875,7.1665625 36.0115625,8.0353125 Z" id="Stroke-22" stroke="#37474F" stroke-linecap="round" stroke-linejoin="round" mask="url(#mask-2)"></path>
                    <path d="M62.5620313,3.125 C62.5620313,4.41875 61.5120313,5.46875 60.2182813,5.46875 C58.9245313,5.46875 57.8745313,4.41875 57.8745313,3.125 C57.8745313,1.83125 58.9245313,0.78125 60.2182813,0.78125 C61.5120313,0.78125 62.5620313,1.83125 62.5620313,3.125" id="Fill-23" fill="#9CCC65" mask="url(#mask-2)"></path>
                    <path d="M62.5620313,3.125 C62.5620313,4.41875 61.5120313,5.46875 60.2182813,5.46875 C58.9245313,5.46875 57.8745313,4.41875 57.8745313,3.125 C57.8745313,1.83125 58.9245313,0.78125 60.2182813,0.78125 C61.5120313,0.78125 62.5620313,1.83125 62.5620313,3.125 Z" id="Stroke-24" stroke="#37474F" stroke-linecap="round" stroke-linejoin="round" mask="url(#mask-2)"></path>
                    <path d="M56.3120313,9.375 C56.3120313,10.66875 55.2620313,11.71875 53.9682813,11.71875 C52.6745313,11.71875 51.6245313,10.66875 51.6245313,9.375 C51.6245313,8.08125 52.6745313,7.03125 53.9682813,7.03125 C55.2620313,7.03125 56.3120313,8.08125 56.3120313,9.375" id="Fill-25" fill="#9CCC65" mask="url(#mask-2)"></path>
                    <path d="M56.3120313,9.375 C56.3120313,10.66875 55.2620313,11.71875 53.9682813,11.71875 C52.6745313,11.71875 51.6245313,10.66875 51.6245313,9.375 C51.6245313,8.08125 52.6745313,7.03125 53.9682813,7.03125 C55.2620313,7.03125 56.3120313,8.08125 56.3120313,9.375 Z" id="Stroke-26" stroke="#37474F" stroke-linecap="round" stroke-linejoin="round" mask="url(#mask-2)"></path>
                    <g id="Group-29" mask="url(#mask-2)">
                        <g transform="translate(48.437500, 35.156406)">
                            <path d="M0.8421875,3.89921875 L0.8421875,0.77421875" id="Fill-27" stroke="none" fill="#9CCC65" fill-rule="evenodd"></path>
                            <path d="M0.8421875,3.89921875 L0.8421875,0.77421875" id="Stroke-28" stroke="#37474F" stroke-width="1" fill="none" stroke-linecap="round" stroke-linejoin="round"></path>
                        </g>
                    </g>
                    <g id="Group-32" mask="url(#mask-2)">
                        <g transform="translate(48.437500, 28.906406)">
                            <path d="M0.8421875,3.89921875 L0.8421875,0.77421875" id="Fill-30" stroke="none" fill="#9CCC65" fill-rule="evenodd"></path>
                            <path d="M0.8421875,3.89921875 L0.8421875,0.77421875" id="Stroke-31" stroke="#37474F" stroke-width="1" fill="none" stroke-linecap="round" stroke-linejoin="round"></path>
                        </g>
                    </g>
                    <g id="Group-35" mask="url(#mask-2)">
                        <g transform="translate(18.750000, 24.218906)">
                            <path d="M0.84234375,4.68046875 L0.84234375,1.55546875" id="Fill-33" stroke="none" fill="#9CCC65" fill-rule="evenodd"></path>
                            <path d="M0.84234375,4.68046875 L0.84234375,1.55546875" id="Stroke-34" stroke="#37474F" stroke-width="1" fill="none" stroke-linecap="round" stroke-linejoin="round"></path>
                        </g>
                    </g>
                    <g id="Group-38" mask="url(#mask-2)">
                        <g transform="translate(18.750000, 17.968906)">
                            <path d="M0.84234375,4.68046875 L0.84234375,1.55546875" id="Fill-36" stroke="none" fill="#9CCC65" fill-rule="evenodd"></path>
                            <path d="M0.84234375,4.68046875 L0.84234375,1.55546875" id="Stroke-37" stroke="#37474F" stroke-width="1" fill="none" stroke-linecap="round" stroke-linejoin="round"></path>
                        </g>
                    </g>
                    <g id="Group-41" mask="url(#mask-2)">
                        <g transform="translate(21.875000, 17.968906)">
                            <path d="M0.84234375,1.55546875 L3.96734375,1.55546875" id="Fill-39" stroke="none" fill="#9CCC65" fill-rule="evenodd"></path>
                            <path d="M0.84234375,1.55546875 L3.96734375,1.55546875" id="Stroke-40" stroke="#37474F" stroke-width="1" fill="none" stroke-linecap="round" stroke-linejoin="round"></path>
                        </g>
                    </g>
                    <g id="Group-44" mask="url(#mask-2)">
                        <g transform="translate(28.125000, 17.968906)">
                            <path d="M0.84234375,1.55546875 L3.96734375,1.55546875" id="Fill-42" stroke="none" fill="#9CCC65" fill-rule="evenodd"></path>
                            <path d="M0.84234375,1.55546875 L3.96734375,1.55546875" id="Stroke-43" stroke="#37474F" stroke-width="1" fill="none" stroke-linecap="round" stroke-linejoin="round"></path>
                        </g>
                    </g>
                    <path d="M91.4673438,45.8026562 C91.4673438,52.7057812 85.8704688,58.3026562 78.9673438,58.3026562 C72.0642188,58.3026562 66.4673438,52.7057812 66.4673438,45.8026562 C66.4673438,38.8995312 72.0642188,33.3026562 78.9673438,33.3026562 C85.8704688,33.3026562 91.4673438,38.8995312 91.4673438,45.8026562 Z" id="Stroke-45" stroke="#37474F" stroke-linecap="round" stroke-linejoin="round" mask="url(#mask-2)"></path>
                    <path d="M87.6346875,38.575 L88.5659375,37.8 C86.27375,35.053125 82.8253125,33.303125 78.9675,33.303125 C72.064375,33.303125 66.4675,38.8984375 66.4675,45.803125 L67.6471875,45.803125 C74.9503125,45.803125 82.020625,43.2453125 87.6346875,38.575" id="Fill-46" fill="#FFB300" mask="url(#mask-2)"></path>
                    <path d="M87.6346875,38.575 L88.5659375,37.8 C86.27375,35.053125 82.8253125,33.303125 78.9675,33.303125 C72.064375,33.303125 66.4675,38.8984375 66.4675,45.803125 L67.6471875,45.803125 C74.9503125,45.803125 82.020625,43.2453125 87.6346875,38.575 Z" id="Stroke-47" stroke="#37474F" stroke-linecap="round" stroke-linejoin="round" mask="url(#mask-2)"></path>
                    <path d="M78.9534375,58.3026563 C80.6175,58.3026563 82.2034375,57.9714063 83.655,57.3807813 L83.6534375,59.8729688 L78.96125,66.8464063 L74.2784375,59.8573438 L74.28,57.3917188 C75.7253125,57.9745313 77.3003125,58.3026563 78.9534375,58.3026563 Z" id="Stroke-48" stroke="#37474F" stroke-linecap="round" stroke-linejoin="round" mask="url(#mask-2)"></path>
                    <path d="M89.9048437,75.4975 L89.9048437,86.435" id="Stroke-49" stroke="#37474F" stroke-linecap="round" stroke-linejoin="round" mask="url(#mask-2)"></path>
                    <polygon id="Fill-50" fill="#90CAF9" mask="url(#mask-2)" points="75.0610938 85.6539063 78.9517188 89.5601563 82.8735937 85.6539063 80.5298437 66.8460938 77.4048438 66.8460938"></polygon>
                    <polygon id="Stroke-51" stroke="#37474F" stroke-linecap="round" stroke-linejoin="round" mask="url(#mask-2)" points="75.0610938 85.6539063 78.9517188 89.5601563 82.8735937 85.6539063 80.5298437 66.8460938 77.4048438 66.8460938"></polygon>
                    <polygon id="Stroke-52" stroke="#37474F" stroke-linecap="round" stroke-linejoin="round" mask="url(#mask-2)" points="83.6548437 59.8735938 84.4360937 66.8470313 73.4985938 66.8470313 74.2798438 59.8595313 78.9610938 66.8470313"></polygon>
                    <path d="M60.5284375,69.0289062 C61.158125,66.8507812 62.7128125,65.0101562 64.8503125,64.0585938 L74.2784375,59.8585937 L78.96125,66.8460937 L83.6534375,59.8742187 L93.076875,64.0601562 C95.89875,65.3148437 97.7175,68.1117187 97.7175,71.2007813 L97.7175,86.4351563" id="Stroke-53" stroke="#37474F" stroke-linecap="round" stroke-linejoin="round" mask="url(#mask-2)"></path>
                    <g id="Group-56" mask="url(#mask-2)">
                        <g transform="translate(78.125000, 24.218906)">
                            <path d="M0.84234375,4.68046875 L0.84234375,1.55546875" id="Fill-54" stroke="none" fill="#9CCC65" fill-rule="evenodd"></path>
                            <path d="M0.84234375,4.68046875 L0.84234375,1.55546875" id="Stroke-55" stroke="#37474F" stroke-width="1" fill="none" stroke-linecap="round" stroke-linejoin="round"></path>
                        </g>
                    </g>
                    <g id="Group-59" mask="url(#mask-2)">
                        <g transform="translate(78.125000, 17.968906)">
                            <path d="M0.84234375,4.68046875 L0.84234375,1.55546875" id="Fill-57" stroke="none" fill="#9CCC65" fill-rule="evenodd"></path>
                            <path d="M0.84234375,4.68046875 L0.84234375,1.55546875" id="Stroke-58" stroke="#37474F" stroke-width="1" fill="none" stroke-linecap="round" stroke-linejoin="round"></path>
                        </g>
                    </g>
                    <g id="Group-62" mask="url(#mask-2)">
                        <g transform="translate(71.875000, 17.968906)">
                            <path d="M3.96734375,1.55546875 L0.84234375,1.55546875" id="Fill-60" stroke="none" fill="#9CCC65" fill-rule="evenodd"></path>
                            <path d="M3.96734375,1.55546875 L0.84234375,1.55546875" id="Stroke-61" stroke="#37474F" stroke-width="1" fill="none" stroke-linecap="round" stroke-linejoin="round"></path>
                        </g>
                    </g>
                    <g id="Group-65" mask="url(#mask-2)">
                        <g transform="translate(65.625000, 17.968906)">
                            <path d="M3.96734375,1.55546875 L0.84234375,1.55546875" id="Fill-63" stroke="none" fill="#9CCC65" fill-rule="evenodd"></path>
                            <path d="M3.96734375,1.55546875 L0.84234375,1.55546875" id="Stroke-64" stroke="#37474F" stroke-width="1" fill="none" stroke-linecap="round" stroke-linejoin="round"></path>
                        </g>
                    </g>
                </g>
                <path d="M85,170 C131.944204,170 170,131.944204 170,85 C170,38.0557963 131.944204,0 85,0 C38.0557963,0 0,38.0557963 0,85 C0,131.944204 38.0557963,170 85,170 Z" id="Oval-10-Copy-2" stroke="#37474F" stroke-dasharray="2,5"></path>
            </g>
        </g>
    </g>
</svg>