<?xml version="1.0" encoding="UTF-8"?>
<svg width="172px" height="172px" viewBox="0 0 172 172" version="1.1" xmlns="http://www.w3.org/2000/svg" xmlns:xlink="http://www.w3.org/1999/xlink">
    <!-- Generator: Sketch 49.2 (51160) - http://www.bohemiancoding.com/sketch -->
    <title>contact_img3</title>
    <desc>Created with Sketch.</desc>
    <defs></defs>
    <g id="Page-1" stroke="none" stroke-width="1" fill="none" fill-rule="evenodd">
        <g id="图标切图" transform="translate(-462.000000, -1041.000000)">
            <g id="contact_img3" transform="translate(463.000000, 1042.000000)">
                <g id="Page-1" transform="translate(47.000000, 35.000000)">
                    <path d="M8.61320755,3.91509434 C8.61320755,2.18462264 10.0148113,0.783018868 11.745283,0.783018868 C13.4757547,0.783018868 14.8773585,2.18462264 14.8773585,3.91509434 L14.8773585,16.4433962 C14.8773585,18.1738679 13.4757547,19.5754717 11.745283,19.5754717 C10.0148113,19.5754717 8.61320755,18.1738679 8.61320755,16.4433962 L8.61320755,11.745283 C8.61320755,10.8808302 9.31479245,10.1792453 10.1792453,10.1792453 C11.0436981,10.1792453 11.745283,10.8808302 11.745283,11.745283 L11.745283,16.435566" id="Stroke-2" stroke="#37474F" stroke-linecap="round" stroke-linejoin="round"></path>
                    <path d="M66.5566038,79.0753528 L66.5566038,84.5658811 C66.5566038,86.7285792 64.8042075,88.4809755 62.6415094,88.4809755 L57.1494151,88.4809755" id="Stroke-3" stroke="#37474F" stroke-linecap="round" stroke-linejoin="round"></path>
                    <path d="M33.1191925,95.5283019 L10.9628906,95.5283019 C8.80019245,95.5283019 7.04779623,93.7759057 7.04779623,91.6132075" id="Stroke-4" stroke="#37474F" stroke-linecap="round" stroke-linejoin="round"></path>
                    <path d="M73.6037736,72.0272434 L73.6037736,91.6136774 C73.6037736,93.7748094 71.8513774,95.5287717 69.6886792,95.5287717 L50.1038113,95.5287717" id="Stroke-5" stroke="#37474F" stroke-linecap="round" stroke-linejoin="round"></path>
                    <path d="M69.6886792,14.0943396 C71.8513774,14.0943396 73.6037736,15.8467358 73.6037736,18.009434 L73.6037736,50.1993396" id="Stroke-6" stroke="#37474F" stroke-linecap="round" stroke-linejoin="round"></path>
                    <path d="M35.4641774,88.4811321 L4.6978,88.4811321 C2.53510189,88.4811321 0.78270566,86.7287358 0.78270566,84.5660377 L0.78270566,10.9622642 C0.78270566,8.79956604 2.53510189,7.04716981 4.6978,7.04716981 L62.6411962,7.04716981 C64.8038943,7.04716981 66.5562906,8.79956604 66.5562906,10.9622642 L66.5562906,52.498283" id="Stroke-7" stroke="#37474F" stroke-linecap="round" stroke-linejoin="round"></path>
                    <path d="M57.1603774,36.794683 L41.5,36.794683 C40.6355472,36.794683 39.9339623,36.0930981 39.9339623,35.2286453 L39.9339623,16.4361925 C39.9339623,15.5717396 40.6355472,14.8701547 41.5,14.8701547 L57.1603774,14.8701547 C58.0248302,14.8701547 58.7264151,15.5717396 58.7264151,16.4361925 L58.7264151,35.2286453 C58.7264151,36.0930981 58.0248302,36.794683 57.1603774,36.794683" id="Fill-8" fill="#90CAF9"></path>
                    <path d="M57.1603774,36.794683 L41.5,36.794683 C40.6355472,36.794683 39.9339623,36.0930981 39.9339623,35.2286453 L39.9339623,16.4361925 C39.9339623,15.5717396 40.6355472,14.8701547 41.5,14.8701547 L57.1603774,14.8701547 C58.0248302,14.8701547 58.7264151,15.5717396 58.7264151,16.4361925 L58.7264151,35.2286453 C58.7264151,36.0930981 58.0248302,36.794683 57.1603774,36.794683 Z" id="Stroke-9" stroke="#37474F" stroke-linecap="round" stroke-linejoin="round"></path>
                    <path d="M53.5063415,25.8324189 C53.5063415,28.1391925 51.6364925,30.0090415 49.3297189,30.0090415 C47.0245113,30.0090415 45.1546623,28.1391925 45.1546623,25.8324189 C45.1546623,23.5256453 47.0245113,21.6557962 49.3297189,21.6557962 C51.6364925,21.6557962 53.5063415,23.5256453 53.5063415,25.8324189" id="Fill-10" fill="#FFFFFF"></path>
                    <path d="M53.5063415,25.8324189 C53.5063415,28.1391925 51.6364925,30.0090415 49.3297189,30.0090415 C47.0245113,30.0090415 45.1546623,28.1391925 45.1546623,25.8324189 C45.1546623,23.5256453 47.0245113,21.6557962 49.3297189,21.6557962 C51.6364925,21.6557962 53.5063415,23.5256453 53.5063415,25.8324189 Z" id="Stroke-11" stroke="#37474F" stroke-linecap="round" stroke-linejoin="round"></path>
                    <path d="M55.5943396,36.794683 L43.0660377,36.794683 L43.0660377,36.2731925 C43.0660377,32.8138151 45.8708113,30.0090415 49.3301887,30.0090415 C52.789566,30.0090415 55.5943396,32.8138151 55.5943396,36.2731925 L55.5943396,36.794683 Z" id="Fill-12" fill="#FFFFFF"></path>
                    <path d="M55.5943396,36.794683 L43.0660377,36.794683 L43.0660377,36.2731925 C43.0660377,32.8138151 45.8708113,30.0090415 49.3301887,30.0090415 C52.789566,30.0090415 55.5943396,32.8138151 55.5943396,36.2731925 L55.5943396,36.794683 Z" id="Stroke-13" stroke="#37474F" stroke-linecap="round" stroke-linejoin="round"></path>
                    <path d="M8.61320755,36.794683 L21.1415094,36.794683" id="Stroke-14" stroke="#37474F" stroke-linecap="round" stroke-linejoin="round"></path>
                    <path d="M8.61320755,24.2663811 L21.1415094,24.2663811" id="Stroke-15" stroke="#37474F" stroke-linecap="round" stroke-linejoin="round"></path>
                    <path d="M8.61320755,28.9644943 L33.6698113,28.9644943" id="Stroke-16" stroke="#37474F" stroke-linecap="round" stroke-linejoin="round"></path>
                    <path d="M8.61320755,44.6248717 L58.7264151,44.6248717" id="Stroke-17" stroke="#37474F" stroke-linecap="round" stroke-linejoin="round"></path>
                    <g id="Group-20" transform="translate(7.830189, 50.896226)">
                        <path d="M0.783018868,1.55883396 L25.8396226,1.55883396" id="Fill-18" fill="#90CAF9"></path>
                        <path d="M0.783018868,1.55883396 L25.8396226,1.55883396" id="Stroke-19" stroke="#37474F" stroke-linecap="round" stroke-linejoin="round"></path>
                    </g>
                    <g id="Group-23" transform="translate(7.830189, 58.726415)">
                        <path d="M0.783018868,1.55883396 L25.8396226,1.55883396" id="Fill-21" fill="#90CAF9"></path>
                        <path d="M0.783018868,1.55883396 L25.8396226,1.55883396" id="Stroke-22" stroke="#37474F" stroke-linecap="round" stroke-linejoin="round"></path>
                    </g>
                    <g id="Group-26" transform="translate(7.830189, 66.556604)">
                        <path d="M0.783018868,1.55883396 L25.8396226,1.55883396" id="Fill-24" fill="#90CAF9"></path>
                        <path d="M0.783018868,1.55883396 L25.8396226,1.55883396" id="Stroke-25" stroke="#37474F" stroke-linecap="round" stroke-linejoin="round"></path>
                    </g>
                    <g id="Group-29" transform="translate(7.830189, 74.386792)">
                        <path d="M0.783018868,1.55883396 L13.3113208,1.55883396" id="Fill-27" fill="#90CAF9"></path>
                        <path d="M0.783018868,1.55883396 L13.3113208,1.55883396" id="Stroke-28" stroke="#37474F" stroke-linecap="round" stroke-linejoin="round"></path>
                    </g>
                    <path d="M46.1981132,0.783332075 L54.0283019,0.783332075" id="Stroke-30" stroke="#37474F" stroke-linecap="round" stroke-linejoin="round"></path>
                    <path d="M57.1603774,0.783018868 L58.7264151,0.783018868" id="Stroke-31" stroke="#37474F" stroke-linecap="round" stroke-linejoin="round"></path>
                    <path d="M79.8677679,30.5377358 L79.8677679,38.3679245" id="Stroke-32" stroke="#37474F" stroke-linecap="round" stroke-linejoin="round"></path>
                    <path d="M79.8679245,41.5 L79.8679245,43.0660377" id="Stroke-33" stroke="#37474F" stroke-linecap="round" stroke-linejoin="round"></path>
                    <path d="M79.962983,53.4881755 L81.0701717,54.5953642 C82.5986245,56.123817 82.5986245,58.6028547 81.0701717,60.1328736 L50.6185679,90.5844774 L43.9738698,83.9397792 L74.4254736,53.4881755 C75.9554925,51.9597226 78.4345302,51.9597226 79.962983,53.4881755" id="Fill-34" fill="#FFB300"></path>
                    <path d="M79.962983,53.4881755 L81.0701717,54.5953642 C82.5986245,56.123817 82.5986245,58.6028547 81.0701717,60.1328736 L50.6185679,90.5844774 L43.9738698,83.9397792 L74.4254736,53.4881755 C75.9554925,51.9597226 78.4345302,51.9597226 79.962983,53.4881755 Z" id="Stroke-35" stroke="#37474F" stroke-linecap="round" stroke-linejoin="round"></path>
                    <polygon id="Stroke-36" stroke="#37474F" stroke-linecap="round" stroke-linejoin="round" points="43.9738698 83.9404057 50.6185679 90.5851038 45.0810585 96.1210472 35.1147943 99.4441792 38.4363604 89.4779151"></polygon>
                    <polygon id="Stroke-37" stroke="#37474F" stroke-linecap="round" stroke-linejoin="round" points="37.3297981 92.7993245 35.1154208 99.4440226 41.7585528 97.2280792"></polygon>
                    <path d="M69.4431245,54.0419264 L58.3696717,65.1153792" id="Stroke-38" stroke="#37474F" stroke-linecap="round" stroke-linejoin="round"></path>
                    <g id="Group-41" transform="translate(73.603774, 52.462264)">
                        <path d="M7.46655472,7.67013962 L0.821856604,1.02544151" id="Fill-39" fill="#37474F"></path>
                        <path d="M7.46655472,7.67013962 L0.821856604,1.02544151" id="Stroke-40" stroke="#37474F" stroke-linecap="round" stroke-linejoin="round"></path>
                    </g>
                </g>
                <path d="M85,170 C131.944204,170 170,131.944204 170,85 C170,38.0557963 131.944204,0 85,0 C38.0557963,0 0,38.0557963 0,85 C0,131.944204 38.0557963,170 85,170 Z" id="Oval-10-Copy" stroke="#37474F" stroke-dasharray="2,5"></path>
            </g>
        </g>
    </g>
</svg>