<?xml version="1.0" encoding="UTF-8"?>
<svg width="172px" height="172px" viewBox="0 0 172 172" version="1.1" xmlns="http://www.w3.org/2000/svg" xmlns:xlink="http://www.w3.org/1999/xlink">
    <!-- Generator: Sketch 49.2 (51160) - http://www.bohemiancoding.com/sketch -->
    <title>contact_img2</title>
    <desc>Created with Sketch.</desc>
    <defs></defs>
    <g id="Page-1" stroke="none" stroke-width="1" fill="none" fill-rule="evenodd">
        <g id="图标切图" transform="translate(-262.000000, -1041.000000)">
            <g id="contact_img2" transform="translate(263.000000, 1042.000000)">
                <g id="Page-1" transform="translate(35.000000, 38.000000)">
                    <path d="M81.1313131,0.827868852 L89.4100016,0.827868852" id="Stroke-2" stroke="#37474F" stroke-linecap="round" stroke-linejoin="round"></path>
                    <path d="M92.721477,0.828034426 L94.3772148,0.828034426" id="Stroke-3" stroke="#37474F" stroke-linecap="round" stroke-linejoin="round"></path>
                    <path d="M19.869018,0.828034426 L11.5903295,0.828034426" id="Stroke-4" stroke="#37474F" stroke-linecap="round" stroke-linejoin="round"></path>
                    <path d="M8.2788541,0.827868852 L6.62311639,0.827868852" id="Stroke-5" stroke="#37474F" stroke-linecap="round" stroke-linejoin="round"></path>
                    <path d="M47.8450246,38.0750131 C48.8351557,37.7620787 49.7524344,37.9408984 50.5008279,38.3763574 L50.5008279,32.9505049 L38.0827951,32.9505049 C35.7962213,32.9505049 33.9434508,34.8032754 33.9434508,37.0898492 L33.9434508,49.507882 L39.3693033,49.507882 C39.0845164,49.9963246 38.9106639,50.5576197 38.9106639,51.1636197 C38.9106639,52.9915541 40.3925492,54.4750951 42.2221393,54.4750951 C44.0500738,54.4750951 45.5336148,52.9915541 45.5336148,51.1636197 C45.5336148,50.5576197 45.3581066,49.9963246 45.0733197,49.507882 L50.5008279,49.507882 L50.5008279,44.0803738 C50.0107295,44.3651607 49.4510902,44.5406689 48.8450902,44.5406689 C46.8317131,44.5406689 45.2388934,42.7458492 45.5783197,40.6695541 C45.7753525,39.4708 46.6860082,38.4409311 47.8450246,38.0750131 Z" id="Stroke-6" stroke="#37474F" stroke-linecap="round" stroke-linejoin="round"></path>
                    <path d="M53.1554721,54.6323902 C52.165341,54.3194557 51.2480623,54.4982754 50.4996689,54.9337344 L50.4996689,49.507882 L45.0738164,49.507882 C45.3586033,49.9963246 45.5324557,50.5576197 45.5324557,51.1636197 C45.5324557,52.9915541 44.0505705,54.4750951 42.2209803,54.4750951 C40.3930459,54.4750951 38.9095049,52.9915541 38.9095049,51.1636197 C38.9095049,50.5576197 39.0850131,49.9963246 39.3698,49.507882 L33.9422918,49.507882 L33.9422918,61.9259148 C33.9422918,64.2108328 35.796718,66.065259 38.0816361,66.065259 L50.4996689,66.065259 L50.4996689,60.6377508 C50.9897672,60.9225377 51.5494066,61.0980459 52.1554066,61.0980459 C54.1687836,61.0980459 55.7616033,59.3032262 55.422177,57.2269311 C55.2251443,56.028177 54.3144885,54.9983082 53.1554721,54.6323902" id="Fill-7" fill="#90CAF9"></path>
                    <path d="M53.1554721,54.6323902 C52.165341,54.3194557 51.2480623,54.4982754 50.4996689,54.9337344 L50.4996689,49.507882 L45.0738164,49.507882 C45.3586033,49.9963246 45.5324557,50.5576197 45.5324557,51.1636197 C45.5324557,52.9915541 44.0505705,54.4750951 42.2209803,54.4750951 C40.3930459,54.4750951 38.9095049,52.9915541 38.9095049,51.1636197 C38.9095049,50.5576197 39.0850131,49.9963246 39.3698,49.507882 L33.9422918,49.507882 L33.9422918,61.9259148 C33.9422918,64.2108328 35.796718,66.065259 38.0816361,66.065259 L50.4996689,66.065259 L50.4996689,60.6377508 C50.9897672,60.9225377 51.5494066,61.0980459 52.1554066,61.0980459 C54.1687836,61.0980459 55.7616033,59.3032262 55.422177,57.2269311 C55.2251443,56.028177 54.3144885,54.9983082 53.1554721,54.6323902 Z" id="Stroke-8" stroke="#37474F" stroke-linecap="round" stroke-linejoin="round"></path>
                    <path d="M61.6311934,49.5075508 C61.9159803,49.0191082 62.0898328,48.4578131 62.0898328,47.8518131 C62.0898328,46.0238787 60.6079475,44.5403377 58.7783574,44.5403377 C56.950423,44.5403377 55.466882,46.0238787 55.466882,47.8518131 C55.466882,48.4578131 55.6423902,49.0191082 55.927177,49.5075508 L50.4996689,49.5075508 L50.4996689,54.9334033 C51.2480623,54.4996 52.165341,54.3191246 53.1554721,54.632059 C54.3144885,54.997977 55.2251443,56.0278459 55.422177,57.2266 C55.7616033,59.3028951 54.1687836,61.0977148 52.1554066,61.0977148 C51.5494066,61.0977148 50.9897672,60.9238623 50.4996689,60.6390754 L50.4996689,66.0649279 L62.9177016,66.0649279 C65.2042754,66.0649279 67.0570459,64.2121574 67.0570459,61.9255836 L67.0570459,49.5075508 L61.6311934,49.5075508 Z" id="Stroke-9" stroke="#37474F" stroke-linecap="round" stroke-linejoin="round"></path>
                    <path d="M50.5001656,32.9501738 L50.5001656,38.3760262 C49.7517721,37.942223 48.8344934,37.7617475 47.8443623,38.074682 C46.6853459,38.4406 45.7746902,39.4704689 45.5793131,40.669223 C45.2398869,42.745518 46.8327066,44.5403377 48.8444279,44.5403377 C49.4504279,44.5403377 50.011723,44.3664852 50.5001656,44.0816984 L50.5001656,49.5075508 L55.926018,49.5075508 C55.6428869,49.0191082 55.4673787,48.4578131 55.4673787,47.8518131 C55.4673787,46.0238787 56.9492639,44.5403377 58.7788541,44.5403377 C60.6084443,44.5403377 62.0903295,46.0238787 62.0903295,47.8518131 C62.0903295,48.4578131 61.9148213,49.0191082 61.6316902,49.5075508 L67.0575426,49.5075508 L67.0575426,37.089518 C67.0575426,34.8029443 65.2047721,32.9501738 62.9181984,32.9501738 L50.5001656,32.9501738 Z" id="Fill-10" fill="#FF7043"></path>
                    <path d="M50.5001656,32.9501738 L50.5001656,38.3760262 C49.7517721,37.942223 48.8344934,37.7617475 47.8443623,38.074682 C46.6853459,38.4406 45.7746902,39.4704689 45.5793131,40.669223 C45.2398869,42.745518 46.8327066,44.5403377 48.8444279,44.5403377 C49.4504279,44.5403377 50.011723,44.3664852 50.5001656,44.0816984 L50.5001656,49.5075508 L55.926018,49.5075508 C55.6428869,49.0191082 55.4673787,48.4578131 55.4673787,47.8518131 C55.4673787,46.0238787 56.9492639,44.5403377 58.7788541,44.5403377 C60.6084443,44.5403377 62.0903295,46.0238787 62.0903295,47.8518131 C62.0903295,48.4578131 61.9148213,49.0191082 61.6316902,49.5075508 L67.0575426,49.5075508 L67.0575426,37.089518 C67.0575426,34.8029443 65.2047721,32.9501738 62.9181984,32.9501738 L50.5001656,32.9501738 Z" id="Stroke-11" stroke="#37474F" stroke-linecap="round" stroke-linejoin="round"></path>
                    <path d="M43.8787049,22.352459 L43.8787049,15.7295082" id="Stroke-12" stroke="#37474F" stroke-linecap="round" stroke-linejoin="round"></path>
                    <path d="M40.5672295,19.0409836 L47.1901803,19.0409836" id="Stroke-13" stroke="#37474F" stroke-linecap="round" stroke-linejoin="round"></path>
                    <path d="M57.1246066,14.0737705 L57.1246066,7.45081967" id="Stroke-14" stroke="#37474F" stroke-linecap="round" stroke-linejoin="round"></path>
                    <path d="M53.8131311,10.7622951 L60.436082,10.7622951" id="Stroke-15" stroke="#37474F" stroke-linecap="round" stroke-linejoin="round"></path>
                    <path d="M27.3196721,28.9755754 C27.3196721,36.2906246 21.3888197,42.221477 14.0737705,42.221477 C6.75872131,42.221477 0.827868852,36.2906246 0.827868852,28.9755754 C0.827868852,21.6605262 6.75872131,15.7296738 14.0737705,15.7296738 C21.3888197,15.7296738 27.3196721,21.6605262 27.3196721,28.9755754 Z" id="Stroke-16" stroke="#37474F" stroke-linecap="round" stroke-linejoin="round"></path>
                    <path d="M23.2583131,21.3164639 L24.2451328,20.495218 C21.8161656,17.5844311 18.1619525,15.7300049 14.0739361,15.7300049 C6.75888689,15.7300049 0.828034426,21.6592016 0.828034426,28.9759066 L2.07811639,28.9759066 C9.81703443,28.9759066 17.3092475,26.2654639 23.2583131,21.3164639" id="Fill-17" fill="#FFB300"></path>
                    <path d="M23.2583131,21.3164639 L24.2451328,20.495218 C21.8161656,17.5844311 18.1619525,15.7300049 14.0739361,15.7300049 C6.75888689,15.7300049 0.828034426,21.6592016 0.828034426,28.9759066 L2.07811639,28.9759066 C9.81703443,28.9759066 17.3092475,26.2654639 23.2583131,21.3164639 Z" id="Stroke-18" stroke="#37474F" stroke-linecap="round" stroke-linejoin="round"></path>
                    <path d="M17.8950475,55.0858967 L24.8640475,71.8088475 C25.2829492,72.8155361 26.0843262,73.6169131 27.0926705,74.0374705 L43.8139656,81.0048148 L40.6283262,88.6460443 L22.3340803,81.0230279 C20.3173918,80.1835689 18.7162934,78.5808148 17.8751787,76.565782 L10.253818,58.2698803" id="Stroke-19" stroke="#37474F" stroke-linecap="round" stroke-linejoin="round"></path>
                    <path d="M25.6639344,93.5491803 L25.6639344,82.4110328" id="Stroke-20" stroke="#37474F" stroke-linecap="round" stroke-linejoin="round"></path>
                    <path d="M25.6639344,73.0292918 L25.6639344,62.1527508 C25.6639344,56.0049967 22.258082,50.3638984 16.8173279,47.4994721 L9.93442623,43.876718 L4.60957377,49.7943246 C3.24027869,51.3142918 2.48360656,53.2879311 2.48360656,55.3327672 L2.48360656,93.5488492" id="Stroke-21" stroke="#37474F" stroke-linecap="round" stroke-linejoin="round"></path>
                    <path d="M46.8793984,82.2742689 L46.8744311,82.2709574 C48.9904639,83.1435311 49.9954967,85.5675311 49.1196115,87.6819082 C48.245382,89.791318 45.8280049,90.7946951 43.7169393,89.923777 L43.7119721,89.9221213" id="Stroke-22" stroke="#37474F" stroke-linecap="round" stroke-linejoin="round"></path>
                    <path d="M14.0737705,42.2213115 C12.6266557,42.2213115 11.2374918,41.9812295 9.93442623,41.5523934 L9.93442623,43.8770492 L16.8173279,47.4998033 C17.1103934,47.6537869 17.3736557,47.8458525 17.6534754,48.0163934 L18.2131148,48.0163934 L18.2131148,41.5523934 C16.9100492,41.9812295 15.5208852,42.2213115 14.0737705,42.2213115 Z" id="Stroke-23" stroke="#37474F" stroke-linecap="round" stroke-linejoin="round"></path>
                    <path d="M2.48360656,86.9262295 L25.6639344,86.9262295" id="Stroke-24" stroke="#37474F" stroke-linecap="round" stroke-linejoin="round"></path>
                    <path d="M73.680659,28.9755754 C73.680659,36.2906246 79.6115115,42.221477 86.9265607,42.221477 C94.2416098,42.221477 100.172462,36.2906246 100.172462,28.9755754 C100.172462,21.6605262 94.2416098,15.7296738 86.9265607,15.7296738 C79.6115115,15.7296738 73.680659,21.6605262 73.680659,28.9755754 Z" id="Stroke-25" stroke="#37474F" stroke-linecap="round" stroke-linejoin="round"></path>
                    <path d="M77.742018,21.3164639 L76.7551984,20.495218 C79.1841656,17.5844311 82.8383787,15.7300049 86.9263951,15.7300049 C94.2414443,15.7300049 100.172297,21.6592016 100.172297,28.9759066 L98.9222148,28.9759066 C91.1832967,28.9759066 83.6910836,26.2654639 77.742018,21.3164639" id="Fill-26" fill="#FFB300"></path>
                    <path d="M77.742018,21.3164639 L76.7551984,20.495218 C79.1841656,17.5844311 82.8383787,15.7300049 86.9263951,15.7300049 C94.2414443,15.7300049 100.172297,21.6592016 100.172297,28.9759066 L98.9222148,28.9759066 C91.1832967,28.9759066 83.6910836,26.2654639 77.742018,21.3164639 Z" id="Stroke-27" stroke="#37474F" stroke-linecap="round" stroke-linejoin="round"></path>
                    <path d="M54.1543787,82.2742689 L54.1593459,82.2709574 C52.0433131,83.1435311 51.0382803,85.5675311 51.9141656,87.6819082 C52.7883951,89.791318 55.2057721,90.7946951 57.3168377,89.923777 L57.3218049,89.9221213" id="Stroke-28" stroke="#37474F" stroke-linecap="round" stroke-linejoin="round"></path>
                    <polyline id="Stroke-29" stroke="#37474F" stroke-linecap="round" stroke-linejoin="round" points="70.369018 75.5115738 57.1860344 81.0053115 60.3716738 88.646541 70.369018 84.4807049"></polyline>
                    <path d="M82.7872164,93.5493459 L82.7872164,57.9244934" id="Stroke-30" stroke="#37474F" stroke-linecap="round" stroke-linejoin="round"></path>
                    <path d="M91.0659049,57.9243279 L91.0659049,93.5491803" id="Stroke-31" stroke="#37474F" stroke-linecap="round" stroke-linejoin="round"></path>
                    <path d="M98.5167246,93.5493459 L98.5167246,55.3332639 C98.5167246,53.2867721 97.7600525,51.3147885 96.3907574,49.7948213 L91.0659049,43.8772148 L84.1830033,47.4999689 C78.7422492,50.3627393 75.3363967,56.0054934 75.3363967,62.1515918 L75.3363967,93.5493459" id="Stroke-32" stroke="#37474F" stroke-linecap="round" stroke-linejoin="round"></path>
                    <path d="M86.9267262,42.2213115 C88.373841,42.2213115 89.7630049,41.9812295 91.0660705,41.5523934 L91.0660705,43.8770492 L84.1831689,47.4998033 C83.8901033,47.6537869 83.626841,47.8458525 83.3470213,48.0163934 L82.787382,48.0163934 L82.787382,41.5523934 C84.0904475,41.9812295 85.4796115,42.2213115 86.9267262,42.2213115 Z" id="Stroke-33" stroke="#37474F" stroke-linecap="round" stroke-linejoin="round"></path>
                    <path d="M75.3363967,86.9262295 L79.475741,86.9262295" id="Stroke-34" stroke="#37474F" stroke-linecap="round" stroke-linejoin="round"></path>
                    <path d="M94.3773803,86.9262295 L98.5167246,86.9262295" id="Stroke-35" stroke="#37474F" stroke-linecap="round" stroke-linejoin="round"></path>
                </g>
                <path d="M85,170 C131.944204,170 170,131.944204 170,85 C170,38.0557963 131.944204,0 85,0 C38.0557963,0 0,38.0557963 0,85 C0,131.944204 38.0557963,170 85,170 Z" id="Oval-10" stroke="#37474F" stroke-dasharray="2,5"></path>
            </g>
        </g>
    </g>
</svg>