<svg xmlns="http://www.w3.org/2000/svg" width="64" height="60" viewBox="0 0 64 60">
    <g fill="none" fill-rule="evenodd">
        <path d="M19.891-11H44.11c8.031 0 12.046 0 16.369 1.367A16.99 16.99 0 0 1 70.633.522C72 4.845 72 8.861 72 16.892v24.217c0 8.031 0 12.046-1.367 16.369a16.988 16.988 0 0 1-10.155 10.155C56.155 69 52.14 69 44.108 69H19.892c-8.031 0-12.046 0-16.369-1.367A16.988 16.988 0 0 1-6.633 57.478C-8 53.155-8 49.14-8 41.108V16.892C-8 8.861-8 4.845-6.633.522A16.99 16.99 0 0 1 3.522-9.633C7.845-11 11.86-11 19.892-11"/>
        <g stroke="#FFF" stroke-width="2" transform="translate(1.034 .414)">
            <rect width="61.926" height="5.898" y="51.993" rx="2"/>
            <rect width="12.744" height="30.438" x="5.423" y="21.642" rx="2"/>
            <rect width="12.744" height="51.08" x="24.591" y="1" rx="2"/>
            <rect width="12.744" height="21.591" x="43.759" y="30.489" rx="2"/>
        </g>
    </g>
</svg>
