<svg xmlns="http://www.w3.org/2000/svg" xmlns:xlink="http://www.w3.org/1999/xlink" width="40" height="40" viewBox="0 0 40 40">
    <defs>
        <rect id="a" width="30" height="21.429" rx="2"/>
    </defs>
    <g fill="none" fill-rule="evenodd">
        <path fill="#FFF" d="M0 0h40v40H0z" opacity=".01"/>
        <g transform="translate(5 9)">
            <mask id="b" fill="#fff">
                <use xlink:href="#a"/>
            </mask>
            <use fill="#FFF" xlink:href="#a"/>
            <path fill="#F0371D" d="M0 0h30v21.429H0z" mask="url(#b)"/>
            <path fill="#FFF" d="M17.143 10.272c-1.14-.714-1.429.584-1.429 0 0-1.183 1.28-2.143 2.857-2.143 1.578 0 2.858.96 2.858 2.143-1.356 0-1.491.714-2.143.714-.8 0-1.003 0-2.143-.714zM18.929 10a.357.357 0 1 0 0-.714.357.357 0 0 0 0 .714zm-2.587 2.804c.327-1.305-.997-1.179-.442-1.36 1.126-.365 2.433.555 2.92 2.056.489 1.5-.029 3.014-1.154 3.38-.419-1.29-1.14-1.198-1.342-1.818-.247-.76-.31-.954.018-2.258zm.81 1.614a.357.357 0 1 0 .68-.22.357.357 0 0 0-.68.22zm-3.466-1.594c1.342-.093.813-1.312 1.156-.84.696.957.225 2.485-1.052 3.413-1.277.927-2.875.903-3.571-.054 1.097-.797.786-1.454 1.314-1.838.647-.47.811-.59 2.153-.681zm-1.285 1.27a.357.357 0 1 0 .42.577.357.357 0 0 0-.42-.578zm.446-3.79c.502 1.249 1.498.368 1.155.84-.695.958-2.294.982-3.57.055-1.277-.928-1.748-2.456-1.053-3.413 1.097.796 1.626.298 2.154.681.647.47.811.59 1.314 1.838zm-1.605-.829a.357.357 0 1 0-.42.578.357.357 0 0 0 .42-.578zm3.74-.747c-1.03.863.114 1.539-.44 1.358-1.126-.366-1.643-1.879-1.156-3.38.488-1.5 1.796-2.42 2.921-2.054-.419 1.289.219 1.638.017 2.258-.247.761-.31.954-1.341 1.818zm.294-1.783a.357.357 0 1 0-.68-.22.357.357 0 0 0 .68.22z" mask="url(#b)"/>
        </g>
    </g>
</svg>
