<svg xmlns="http://www.w3.org/2000/svg" width="62" height="63" viewBox="0 0 62 63">
    <g fill="none" fill-rule="evenodd">
        <path d="M18.891-8H43.11c8.031 0 12.046 0 16.369 1.367A16.99 16.99 0 0 1 69.633 3.522C71 7.845 71 11.861 71 19.892v24.217c0 8.031 0 12.046-1.367 16.369a16.988 16.988 0 0 1-10.155 10.155C55.155 72 51.14 72 43.108 72H18.892c-8.031 0-12.046 0-16.369-1.367A16.988 16.988 0 0 1-7.633 60.478C-9 56.155-9 52.14-9 44.108V19.892c0-8.03 0-12.046 1.367-16.369A16.99 16.99 0 0 1 2.522-6.633C6.845-8 10.86-8 18.892-8"/>
        <g stroke="#FFF" stroke-width="2" transform="translate(.655 1.655)">
            <path d="M9.62 37.488L1.52 51.152c-.743 1.287-.251 1.796 1.098 1.158 0 0 7.668-3.89 9.164-3.027 1.682.971 2.433 9.777 2.433 9.777.162 1.49.895 1.656 1.639.368l8.102-13.664M51.037 37.488l8.102 13.664c.743 1.287.25 1.796-1.098 1.158 0 0-7.668-3.89-9.164-3.027-1.683.971-2.433 9.777-2.433 9.777-.162 1.49-.896 1.656-1.639.368l-8.102-13.664"/>
            <ellipse cx="30.345" cy="21.579" rx="22.069" ry="21.579"/>
            <ellipse cx="30.345" cy="21.579" rx="13.793" ry="13.487"/>
        </g>
    </g>
</svg>
