<svg xmlns="http://www.w3.org/2000/svg" width="60" height="66" viewBox="0 0 60 66">
    <g fill="none" fill-rule="evenodd">
        <path d="M17.891-7H42.11c8.031 0 12.046 0 16.369 1.367A16.99 16.99 0 0 1 68.633 4.522C70 8.845 70 12.861 70 20.892v24.217c0 8.031 0 12.046-1.367 16.369a16.988 16.988 0 0 1-10.155 10.155C54.155 73 50.14 73 42.108 73H17.892C9.86 73 5.845 73 1.522 71.633A16.988 16.988 0 0 1-8.633 61.478C-10 57.155-10 53.14-10 45.108V20.892c0-8.03 0-12.046 1.367-16.369A16.99 16.99 0 0 1 1.522-5.633C5.845-7 9.86-7 17.892-7"/>
        <g transform="translate(-3.103 1.276)">
            <ellipse cx="33.103" cy="31.724" stroke="#FFF" stroke-width="2" rx="12.414" ry="31.724"/>
            <ellipse cx="33.103" cy="31.724" stroke="#FFF" stroke-width="2" rx="12.414" ry="31.724" transform="rotate(60 33.103 31.724)"/>
            <ellipse cx="33.103" cy="31.724" stroke="#FFF" stroke-width="2" rx="12.414" ry="31.724" transform="scale(-1 1) rotate(60 0 -25.613)"/>
            <circle cx="33.103" cy="31.724" r="4.138" fill="#FFF"/>
        </g>
    </g>
</svg>
